<?xml version="1.0" encoding="utf-8"?>
<!-- Generator: Adobe Illustrator 24.0.0, SVG Export Plug-In . SVG Version: 6.00 Build 0)  -->
<svg version="1.1" id="Layer_1" xmlns="http://www.w3.org/2000/svg" xmlns:xlink="http://www.w3.org/1999/xlink" x="0px" y="0px"
	 viewBox="0 0 208.04 75.56" style="enable-background:new 0 0 208.04 75.56;" xml:space="preserve">
<style type="text/css">
	.st0{fill:#FFFFFF;}
	.st1{fill:none;stroke:#FFFFFF;stroke-width:2;}
</style>
<g>
	<g>
		<g>
			<path class="st0" d="M83.87,32.19l-0.78,2.58h-1.71l2.92-9.1h2.12l2.96,9.1h-1.78l-0.82-2.58H83.87z M86.48,30.94l-0.71-2.24
				c-0.18-0.55-0.32-1.17-0.46-1.7h-0.03c-0.13,0.53-0.27,1.16-0.43,1.7l-0.7,2.24H86.48z"/>
			<path class="st0" d="M90.24,33.23c0.36,0.23,1.08,0.49,1.67,0.49c0.73,0,1.05-0.31,1.05-0.74c0-0.45-0.27-0.66-1.08-0.96
				c-1.28-0.43-1.81-1.13-1.81-1.92c0-1.16,0.96-2.05,2.48-2.05c0.73,0,1.36,0.18,1.75,0.39l-0.34,1.16
				c-0.27-0.16-0.81-0.38-1.39-0.38c-0.59,0-0.92,0.3-0.92,0.7c0,0.42,0.31,0.61,1.15,0.92c1.2,0.42,1.74,1.03,1.75,2
				c0,1.2-0.93,2.07-2.67,2.07c-0.8,0-1.51-0.19-2-0.46L90.24,33.23z"/>
			<path class="st0" d="M95.67,33.23c0.37,0.23,1.08,0.49,1.67,0.49c0.73,0,1.05-0.31,1.05-0.74c0-0.45-0.27-0.66-1.08-0.96
				c-1.28-0.43-1.81-1.13-1.81-1.92c0-1.16,0.96-2.05,2.48-2.05c0.73,0,1.36,0.18,1.75,0.39l-0.34,1.16
				c-0.27-0.16-0.81-0.38-1.39-0.38c-0.59,0-0.92,0.3-0.92,0.7c0,0.42,0.31,0.61,1.15,0.92c1.2,0.42,1.74,1.03,1.75,2
				c0,1.2-0.93,2.07-2.67,2.07c-0.8,0-1.51-0.19-2-0.46L95.67,33.23z"/>
			<path class="st0" d="M104.04,34.92c-1.85,0-3.29-1.27-3.29-3.39c0-2.16,1.42-3.48,3.4-3.48c1.96,0,3.27,1.38,3.27,3.38
				c0,2.42-1.7,3.5-3.36,3.5H104.04z M104.1,33.72c0.95,0,1.61-0.92,1.61-2.25c0-1.03-0.46-2.21-1.59-2.21
				c-1.17,0-1.65,1.15-1.65,2.24c0,1.27,0.63,2.23,1.62,2.23H104.1z"/>
			<path class="st0" d="M113.41,34.57c-0.35,0.16-1.04,0.34-1.86,0.34c-2.05,0-3.39-1.32-3.39-3.36c0-1.97,1.35-3.5,3.66-3.5
				c0.61,0,1.23,0.14,1.61,0.3l-0.3,1.26c-0.27-0.14-0.66-0.26-1.26-0.26c-1.27,0-2.02,0.93-2.01,2.13c0,1.35,0.88,2.12,2.01,2.12
				c0.57,0,0.99-0.12,1.31-0.26L113.41,34.57z"/>
			<path class="st0" d="M115.26,27.25c-0.55,0-0.92-0.4-0.92-0.89c0-0.51,0.38-0.9,0.93-0.9c0.57,0,0.92,0.39,0.93,0.9
				c0,0.49-0.36,0.89-0.93,0.89H115.26z M114.44,34.77V28.2h1.66v6.57H114.44z"/>
			<path class="st0" d="M122.79,33.19c0,0.59,0.03,1.17,0.11,1.58h-1.5l-0.12-0.73h-0.04c-0.39,0.51-1.08,0.88-1.94,0.88
				c-1.32,0-2.07-0.96-2.07-1.96c0-1.65,1.47-2.5,3.9-2.48v-0.11c0-0.43-0.17-1.15-1.34-1.15c-0.65,0-1.32,0.2-1.77,0.49l-0.32-1.08
				c0.49-0.3,1.34-0.58,2.38-0.58c2.11,0,2.71,1.34,2.71,2.78V33.19z M121.17,31.56c-1.17-0.01-2.29,0.23-2.29,1.23
				c0,0.65,0.42,0.94,0.95,0.94c0.67,0,1.15-0.43,1.31-0.9c0.04-0.12,0.04-0.24,0.04-0.36V31.56z"/>
			<path class="st0" d="M126.17,26.51v1.69h1.58v1.24h-1.58v2.89c0,0.81,0.22,1.21,0.85,1.21c0.3,0,0.46-0.01,0.65-0.07l0.03,1.26
				c-0.24,0.09-0.69,0.18-1.2,0.18c-0.62,0-1.12-0.2-1.43-0.54c-0.36-0.38-0.53-0.99-0.53-1.85v-3.08h-0.93V28.2h0.93v-1.23
				L126.17,26.51z"/>
			<path class="st0" d="M129.62,27.25c-0.55,0-0.92-0.4-0.92-0.89c0-0.51,0.38-0.9,0.93-0.9c0.57,0,0.92,0.39,0.93,0.9
				c0,0.49-0.36,0.89-0.93,0.89H129.62z M128.8,34.77V28.2h1.66v6.57H128.8z"/>
			<path class="st0" d="M134.93,34.92c-1.85,0-3.29-1.27-3.29-3.39c0-2.16,1.42-3.48,3.4-3.48c1.96,0,3.27,1.38,3.27,3.38
				c0,2.42-1.7,3.5-3.36,3.5H134.93z M134.98,33.72c0.95,0,1.61-0.92,1.61-2.25c0-1.03-0.46-2.21-1.59-2.21
				c-1.17,0-1.65,1.15-1.65,2.24c0,1.27,0.63,2.23,1.62,2.23H134.98z"/>
			<path class="st0" d="M139.46,30.15c0-0.76-0.03-1.39-0.05-1.96h1.44l0.08,0.99h0.04c0.3-0.51,1.01-1.13,2.11-1.13
				c1.15,0,2.34,0.74,2.34,2.82v3.9h-1.66v-3.71c0-0.95-0.35-1.66-1.25-1.66c-0.66,0-1.12,0.47-1.3,0.97
				c-0.05,0.13-0.08,0.34-0.08,0.53v3.87h-1.66V30.15z"/>
			<path class="st0" d="M149.77,34.77v-5.33h-0.89V28.2h0.89v-0.28c0-0.85,0.23-1.7,0.8-2.24c0.49-0.46,1.15-0.63,1.71-0.63
				c0.45,0,0.8,0.08,1.05,0.16l-0.11,1.28c-0.19-0.07-0.41-0.12-0.72-0.12c-0.82,0-1.09,0.69-1.09,1.5v0.34h1.45v1.24h-1.43v5.33
				H149.77z"/>
			<path class="st0" d="M156.41,34.92c-1.85,0-3.29-1.27-3.29-3.39c0-2.16,1.42-3.48,3.4-3.48c1.96,0,3.27,1.38,3.27,3.38
				c0,2.42-1.7,3.5-3.36,3.5H156.41z M156.46,33.72c0.95,0,1.61-0.92,1.61-2.25c0-1.03-0.46-2.21-1.59-2.21
				c-1.17,0-1.65,1.15-1.65,2.24c0,1.27,0.63,2.23,1.62,2.23H156.46z"/>
			<path class="st0" d="M160.94,30.32c0-0.89-0.01-1.54-0.05-2.12h1.43l0.07,1.24h0.04c0.32-0.92,1.09-1.39,1.81-1.39
				c0.16,0,0.26,0.01,0.39,0.04v1.55c-0.15-0.03-0.3-0.04-0.5-0.04c-0.78,0-1.34,0.5-1.49,1.26c-0.03,0.15-0.04,0.32-0.04,0.5v3.42
				h-1.66V30.32z"/>
			<path class="st0" d="M88.57,49.5c-0.39,0.19-1.26,0.4-2.36,0.4c-2.89,0-4.64-1.81-4.64-4.58c0-3,2.09-4.79,4.87-4.79
				c1.09,0,1.86,0.22,2.2,0.39l-0.35,1.32c-0.43-0.19-1.04-0.35-1.78-0.35c-1.85,0-3.19,1.16-3.19,3.35c0,2,1.16,3.27,3.17,3.27
				c0.66,0,1.36-0.13,1.81-0.32L88.57,49.5z"/>
			<path class="st0" d="M92.38,49.92c-1.85,0-3.29-1.27-3.29-3.39c0-2.16,1.42-3.48,3.4-3.48c1.96,0,3.27,1.38,3.27,3.38
				c0,2.42-1.7,3.5-3.36,3.5H92.38z M92.43,48.72c0.95,0,1.61-0.92,1.61-2.25c0-1.03-0.46-2.21-1.59-2.21
				c-1.17,0-1.65,1.15-1.65,2.24c0,1.27,0.63,2.23,1.62,2.23H92.43z"/>
			<path class="st0" d="M96.91,45.15c0-0.76-0.03-1.39-0.05-1.96h1.42l0.08,0.97h0.04c0.31-0.51,0.9-1.12,2.03-1.12
				c0.86,0,1.54,0.49,1.82,1.21h0.03c0.23-0.36,0.5-0.63,0.8-0.82c0.38-0.26,0.8-0.39,1.35-0.39c1.08,0,2.19,0.74,2.19,2.85v3.87
				h-1.62v-3.63c0-1.09-0.38-1.74-1.17-1.74c-0.57,0-0.99,0.41-1.16,0.88c-0.05,0.15-0.08,0.36-0.08,0.55v3.94h-1.62v-3.81
				c0-0.92-0.37-1.57-1.13-1.57c-0.62,0-1.04,0.49-1.2,0.93c-0.05,0.18-0.08,0.36-0.08,0.55v3.89h-1.62V45.15z"/>
			<path class="st0" d="M108.16,45.38c0-0.86-0.03-1.57-0.05-2.19h1.46l0.08,1.01h0.03c0.49-0.74,1.25-1.16,2.25-1.16
				c1.51,0,2.77,1.3,2.77,3.35c0,2.38-1.5,3.52-3,3.52c-0.82,0-1.51-0.35-1.85-0.88h-0.03v3.4h-1.66V45.38z M109.82,47.02
				c0,0.16,0.01,0.31,0.04,0.46c0.18,0.67,0.76,1.16,1.47,1.16c1.05,0,1.67-0.88,1.67-2.17c0-1.16-0.57-2.11-1.63-2.11
				c-0.69,0-1.32,0.5-1.5,1.23c-0.03,0.13-0.05,0.28-0.05,0.42V47.02z"/>
			<path class="st0" d="M121.74,47.8c0,0.78,0.03,1.43,0.05,1.97h-1.44l-0.08-0.99h-0.04c-0.28,0.46-0.93,1.13-2.12,1.13
				c-1.19,0-2.28-0.72-2.28-2.86V43.2h1.66v3.58c0,1.09,0.35,1.8,1.23,1.8c0.67,0,1.11-0.46,1.27-0.89
				c0.07-0.13,0.09-0.32,0.09-0.51V43.2h1.66V47.8z"/>
			<path class="st0" d="M125.24,41.51v1.69h1.58v1.24h-1.58v2.89c0,0.81,0.22,1.21,0.85,1.21c0.3,0,0.46-0.01,0.65-0.07l0.03,1.26
				c-0.24,0.09-0.69,0.17-1.2,0.17c-0.62,0-1.12-0.2-1.43-0.54c-0.36-0.38-0.53-0.99-0.53-1.85v-3.08h-0.93V43.2h0.93v-1.23
				L125.24,41.51z"/>
			<path class="st0" d="M128.69,42.25c-0.55,0-0.92-0.41-0.92-0.89c0-0.51,0.38-0.91,0.93-0.91c0.57,0,0.92,0.39,0.93,0.91
				c0,0.49-0.36,0.89-0.93,0.89H128.69z M127.87,49.77V43.2h1.66v6.57H127.87z"/>
			<path class="st0" d="M131.12,45.15c0-0.76-0.03-1.39-0.05-1.96h1.44l0.08,0.99h0.04c0.3-0.51,1.01-1.13,2.11-1.13
				c1.15,0,2.34,0.74,2.34,2.82v3.9h-1.66v-3.71c0-0.94-0.35-1.66-1.25-1.66c-0.66,0-1.12,0.47-1.3,0.97
				c-0.05,0.14-0.08,0.34-0.08,0.53v3.87h-1.66V45.15z"/>
			<path class="st0" d="M144.6,48.81c0,1.38-0.28,2.36-0.97,2.98c-0.67,0.61-1.63,0.8-2.54,0.8c-0.84,0-1.73-0.19-2.3-0.53
				l0.37-1.26c0.42,0.24,1.12,0.5,1.92,0.5c1.08,0,1.89-0.57,1.89-1.98v-0.57h-0.03c-0.38,0.58-1.04,0.97-1.92,0.97
				c-1.63,0-2.79-1.35-2.79-3.21c0-2.16,1.4-3.47,2.98-3.47c1.01,0,1.59,0.49,1.9,1.03h0.03l0.07-0.88h1.44
				c-0.03,0.45-0.05,0.99-0.05,1.89V48.81z M142.93,45.83c0-0.16-0.01-0.31-0.05-0.45c-0.18-0.61-0.65-1.07-1.35-1.07
				c-0.93,0-1.62,0.81-1.62,2.15c0,1.12,0.57,2.03,1.61,2.03c0.62,0,1.16-0.41,1.35-1.01c0.05-0.16,0.07-0.39,0.07-0.58V45.83z"/>
			<path class="st0" d="M156.52,46.06c-0.05-1.17-0.12-2.58-0.11-3.82h-0.04c-0.3,1.11-0.67,2.34-1.08,3.48l-1.34,3.94h-1.27
				l-1.21-3.89c-0.35-1.16-0.67-2.4-0.92-3.54h-0.03c-0.04,1.19-0.09,2.63-0.16,3.88l-0.2,3.66h-1.55l0.61-9.1h2.19l1.19,3.66
				c0.32,1.07,0.61,2.15,0.84,3.16h0.04c0.24-0.99,0.55-2.11,0.9-3.17l1.26-3.64h2.16l0.53,9.1h-1.62L156.52,46.06z"/>
			<path class="st0" d="M164.89,48.19c0,0.59,0.03,1.17,0.11,1.58h-1.5l-0.12-0.73h-0.04c-0.39,0.51-1.08,0.88-1.94,0.88
				c-1.32,0-2.07-0.96-2.07-1.96c0-1.65,1.47-2.5,3.9-2.48v-0.11c0-0.43-0.17-1.15-1.34-1.15c-0.65,0-1.32,0.2-1.77,0.49l-0.32-1.08
				c0.49-0.3,1.34-0.58,2.38-0.58c2.11,0,2.71,1.34,2.71,2.78V48.19z M163.27,46.56c-1.17-0.01-2.29,0.23-2.29,1.23
				c0,0.65,0.42,0.95,0.95,0.95c0.67,0,1.15-0.43,1.31-0.91c0.04-0.12,0.04-0.24,0.04-0.36V46.56z"/>
			<path class="st0" d="M171.27,49.57c-0.35,0.16-1.04,0.34-1.86,0.34c-2.05,0-3.39-1.32-3.39-3.36c0-1.97,1.35-3.5,3.66-3.5
				c0.61,0,1.23,0.13,1.61,0.3l-0.3,1.25c-0.27-0.13-0.66-0.26-1.26-0.26c-1.27,0-2.02,0.93-2.01,2.13c0,1.35,0.88,2.12,2.01,2.12
				c0.57,0,0.99-0.12,1.31-0.26L171.27,49.57z"/>
			<path class="st0" d="M172.3,40.17h1.66v3.92h0.03c0.2-0.31,0.49-0.57,0.82-0.74c0.34-0.19,0.73-0.3,1.15-0.3
				c1.12,0,2.29,0.74,2.29,2.85v3.87h-1.66v-3.7c0-0.94-0.35-1.67-1.27-1.67c-0.65,0-1.11,0.43-1.3,0.93
				c-0.05,0.15-0.07,0.32-0.07,0.5v3.94h-1.66V40.17z"/>
			<path class="st0" d="M180.64,42.25c-0.55,0-0.92-0.41-0.92-0.89c0-0.51,0.38-0.91,0.93-0.91c0.57,0,0.92,0.39,0.93,0.91
				c0,0.49-0.36,0.89-0.93,0.89H180.64z M179.82,49.77V43.2h1.66v6.57H179.82z"/>
			<path class="st0" d="M183.07,45.15c0-0.76-0.03-1.39-0.05-1.96h1.44l0.08,0.99h0.04c0.3-0.51,1.01-1.13,2.11-1.13
				c1.15,0,2.34,0.74,2.34,2.82v3.9h-1.66v-3.71c0-0.94-0.35-1.66-1.25-1.66c-0.66,0-1.12,0.47-1.3,0.97
				c-0.05,0.14-0.08,0.34-0.08,0.53v3.87h-1.66V45.15z"/>
			<path class="st0" d="M191.76,46.95c0.04,1.19,0.97,1.7,2.03,1.7c0.77,0,1.31-0.12,1.82-0.3l0.24,1.13
				c-0.57,0.24-1.35,0.42-2.29,0.42c-2.13,0-3.39-1.31-3.39-3.32c0-1.82,1.11-3.54,3.21-3.54c2.13,0,2.83,1.75,2.83,3.2
				c0,0.31-0.03,0.55-0.05,0.7H191.76z M194.65,45.79c0.01-0.61-0.26-1.61-1.36-1.61c-1.03,0-1.46,0.93-1.53,1.61H194.65z"/>
			<path class="st0" d="M197.35,45.32c0-0.89-0.01-1.54-0.05-2.12h1.43l0.07,1.24h0.04c0.32-0.92,1.09-1.39,1.81-1.39
				c0.16,0,0.26,0.01,0.39,0.04v1.55c-0.15-0.03-0.3-0.04-0.5-0.04c-0.78,0-1.34,0.5-1.49,1.26c-0.03,0.15-0.04,0.32-0.04,0.5v3.42
				h-1.66V45.32z"/>
			<path class="st0" d="M203.31,43.2l1.17,3.52c0.14,0.4,0.28,0.9,0.38,1.27h0.04c0.09-0.36,0.22-0.86,0.35-1.28l1.03-3.51h1.77
				l-1.65,4.48c-0.9,2.46-1.51,3.55-2.28,4.23c-0.66,0.57-1.34,0.78-1.74,0.84L202,51.35c0.28-0.07,0.62-0.22,0.96-0.46
				c0.31-0.2,0.69-0.59,0.92-1.04c0.05-0.12,0.09-0.22,0.09-0.3c0-0.07-0.01-0.16-0.08-0.32l-2.42-6.03H203.31z"/>
		</g>
		<g>
			
				<rect x="12.32" y="12.28" transform="matrix(0.7071 -0.7071 0.7071 0.7071 -15.623 37.7627)" class="st1" width="50.91" height="50.91"/>
			<path class="st0" d="M37.77,15.67c-12.19,0-22.07,9.88-22.07,22.07c0,12.19,9.88,22.07,22.07,22.07
				c12.19,0,22.07-9.88,22.07-22.07C59.84,25.55,49.96,15.67,37.77,15.67z M37.77,57.6c-10.97,0-19.87-8.89-19.87-19.86
				c0-10.97,8.89-19.87,19.87-19.87c10.97,0,19.87,8.89,19.87,19.87C57.64,48.71,48.75,57.6,37.77,57.6z"/>
			<g>
				<g>
					<path class="st0" d="M26.21,41.61c-0.2,0.17-0.39,0.32-0.55,0.46c-0.16,0.14-0.38,0.28-0.65,0.41
						c-0.27,0.13-0.53,0.23-0.78,0.29c-0.25,0.06-0.6,0.1-1.06,0.1c-0.84,0-1.54-0.28-2.1-0.85c-0.56-0.57-0.84-1.28-0.84-2.14
						c0-0.71,0.14-1.28,0.42-1.72c0.28-0.44,0.69-0.78,1.22-1.04c0.54-0.26,1.18-0.44,1.93-0.54c0.75-0.1,1.55-0.18,2.41-0.24v-0.05
						c0-0.53-0.2-0.89-0.58-1.09c-0.39-0.2-0.97-0.3-1.75-0.3c-0.35,0-0.76,0.06-1.23,0.19c-0.47,0.13-0.93,0.29-1.38,0.49h-0.25
						v-2.32c0.3-0.09,0.77-0.19,1.43-0.3c0.66-0.12,1.32-0.18,1.99-0.18c1.65,0,2.85,0.28,3.6,0.82c0.75,0.55,1.13,1.38,1.13,2.51
						v6.51h-2.98V41.61z M26.21,40.12v-1.98c-0.5,0.05-0.91,0.1-1.21,0.13c-0.31,0.04-0.62,0.11-0.91,0.22
						c-0.26,0.09-0.46,0.23-0.61,0.41c-0.14,0.18-0.21,0.43-0.21,0.73c0,0.45,0.12,0.75,0.36,0.92c0.24,0.17,0.59,0.25,1.06,0.25
						c0.26,0,0.52-0.06,0.79-0.18C25.74,40.5,25.99,40.33,26.21,40.12z"/>
					<path class="st0" d="M35.74,42.87c-0.79,0-1.52-0.1-2.17-0.3c-0.66-0.2-1.23-0.5-1.71-0.92c-0.48-0.41-0.85-0.93-1.12-1.56
						c-0.27-0.63-0.4-1.37-0.4-2.22c0-0.91,0.14-1.69,0.44-2.33c0.29-0.64,0.68-1.17,1.18-1.58c0.48-0.4,1.04-0.69,1.68-0.88
						c0.65-0.19,1.32-0.29,2.02-0.29c0.53,0,1.06,0.06,1.59,0.18c0.53,0.12,1.06,0.32,1.6,0.58v2.56h-0.38
						c-0.12-0.11-0.27-0.24-0.44-0.38c-0.17-0.14-0.36-0.26-0.57-0.38c-0.21-0.12-0.46-0.22-0.73-0.3
						c-0.27-0.08-0.58-0.12-0.91-0.12c-0.76,0-1.35,0.26-1.77,0.79c-0.42,0.53-0.63,1.24-0.63,2.14c0,0.96,0.22,1.67,0.67,2.14
						c0.45,0.47,1.04,0.71,1.78,0.71c0.38,0,0.71-0.04,0.99-0.13c0.29-0.08,0.53-0.19,0.73-0.3c0.2-0.12,0.37-0.24,0.51-0.37
						c0.14-0.12,0.27-0.24,0.37-0.34h0.38v2.55c-0.17,0.07-0.37,0.16-0.59,0.26c-0.22,0.09-0.45,0.17-0.69,0.24
						c-0.29,0.08-0.56,0.14-0.82,0.18C36.49,42.84,36.15,42.87,35.74,42.87z"/>
					<path class="st0" d="M51.85,42.62v-4.78c0-0.47-0.01-0.87-0.03-1.19c-0.02-0.32-0.07-0.59-0.15-0.79
						c-0.09-0.2-0.22-0.35-0.4-0.45c-0.18-0.09-0.43-0.14-0.76-0.14c-0.23,0-0.45,0.05-0.67,0.15c-0.22,0.1-0.47,0.24-0.73,0.42
						v6.79h-2.98v-4.78c0-0.46-0.01-0.86-0.03-1.19c-0.02-0.33-0.07-0.59-0.16-0.8c-0.09-0.2-0.22-0.35-0.4-0.45
						c-0.18-0.09-0.43-0.14-0.75-0.14c-0.24,0-0.48,0.06-0.72,0.17c-0.23,0.12-0.46,0.25-0.68,0.4v6.79h-2.98v-9.56h2.98v1.05
						c0.49-0.42,0.95-0.74,1.38-0.97c0.43-0.23,0.92-0.35,1.45-0.35c0.59,0,1.1,0.14,1.54,0.42c0.44,0.28,0.78,0.69,1.01,1.24
						c0.57-0.53,1.12-0.94,1.62-1.23c0.51-0.29,1.02-0.43,1.54-0.43c0.44,0,0.84,0.07,1.19,0.21c0.35,0.14,0.65,0.35,0.89,0.64
						c0.27,0.31,0.47,0.67,0.6,1.09c0.13,0.42,0.2,0.98,0.2,1.66v6.23H51.85z"/>
				</g>
			</g>
		</g>
	</g>
</g>
</svg>
