<?xml version="1.0" encoding="utf-8"?>
<!-- Generator: Adobe Illustrator 25.3.1, SVG Export Plug-In . SVG Version: 6.00 Build 0)  -->
<svg version="1.1" id="Layer_1" xmlns="http://www.w3.org/2000/svg" xmlns:xlink="http://www.w3.org/1999/xlink" x="0px" y="0px"
	 viewBox="0 0 966 341" style="enable-background:new 0 0 966 341;" xml:space="preserve">
<style type="text/css">
	.st0{fill:#FFFFFF;}
</style>
<path class="st0" d="M459.4,204.9h43.2V42.3h-43.2V204.9z M690.4,42.3v33.9h54.4v128.7H788V76.2h54.4V42.3L690.4,42.3L690.4,42.3z
	 M630.2,106.7h-36.1c-9.6,0-17.4-4-17.4-15.2c0-11.3,7.8-15.2,17.4-15.2h77.7V42.4H589c-30.9,0-56,17.8-56,49.1s25.1,49.1,56,49.1
	h37.2c9.6,0,17.4,4,17.4,15.3s-7.8,15.2-17.4,15.2H539V205h91.2c30.9,0,56-17.8,56-49.1C686.1,124.6,661.1,106.7,630.2,106.7
	 M327.9,42.3l-61.1,146.3l-58.3-65l72.9-81.3H232l-69,77.2V42.3h-43.2v162.6H163v-77.2l69,77.2h71.9l49.5-122.6l35.9,90.1h-57.1
	l13.6,32.5h101L378.9,42.3L327.9,42.3L327.9,42.3z"/>
<path class="st0" d="M19.5,273.2c150.8,21.4,304.9,32.5,461.6,32.5s310.8-11.1,461.5-32.5c-150.8-21.4-304.8-32.5-461.5-32.5
	C324.3,240.7,170.2,251.8,19.5,273.2"/>
</svg>
