<?xml version="1.0" encoding="utf-8"?>
<!-- Generator: Adobe Illustrator 24.0.0, SVG Export Plug-In . SVG Version: 6.00 Build 0)  -->
<svg version="1.1" id="Layer_1" xmlns="http://www.w3.org/2000/svg" xmlns:xlink="http://www.w3.org/1999/xlink" x="0px" y="0px"
	 viewBox="0 0 577.61 149.69" style="enable-background:new 0 0 577.61 149.69;" xml:space="preserve">
<style type="text/css">
	.st0{fill:#FFFFFF;}
</style>
<g id="CHI">
	<path class="st0" d="M533.97,116.68c-0.19,0.18-0.29,0.36-0.42,0.38c-2.7,0.45-5.42,0.02-8.27,0.26c-0.36-0.36-0.74-0.74-1.04-1.04
		c0-11.91,0-23.62,0-35.34c-0.24-0.22-0.46-0.43-0.7-0.66c-11.56,0-23.11,0-34.72,0c-0.19,0.17-0.42,0.38-0.68,0.61
		c0,11.86,0,23.72,0,35.53c-0.38,0.64-0.86,0.86-1.57,0.85c-2.5-0.05-5-0.02-7.51-0.02c-0.43-0.32-0.85-0.63-0.77-1.3
		c0.06-0.54,0.01-1.09,0.01-1.64c0-24.37,0-48.74,0-73.13c0.33-0.57,0.8-0.81,1.52-0.79c2.5,0.05,5,0.02,7.56,0.02
		c0.2,0.17,0.43,0.38,0.69,0.61c0,9.82,0,19.65,0,29.36c0.41,1.07,1.22,0.93,2,0.93c7.97-0.01,15.93,0,23.9,0c3.35,0,6.7,0,10.01,0
		c0.47-0.64,0.26-1.29,0.26-1.88c0.01-8.9,0-17.81,0.02-26.71c0-0.73-0.32-1.58,0.51-2.14c4.02-0.43,7.9-0.29,9.21,0.39
		C533.97,66.14,533.97,91.35,533.97,116.68z"/>
	<path class="st0" d="M447.65,102.23c0,3.58,0,7.06,0,10.79c-1.36,1.36-3.38,2.03-5.32,2.85c-2.36,0.99-4.87,1.47-7.3,2.2
		c-0.14,0.04-0.28,0.12-0.43,0.13c-3.24,0.14-6.47,0.94-9.7,0.44c-2.25-0.34-4.55-0.22-6.75-0.9c-2.07-0.64-4.25-1.04-6.17-1.99
		c-2.14-1.06-4.36-1.99-6.36-3.36c-3.48-2.38-6.5-5.26-9.25-8.39c-2.91-3.31-5.1-7.16-6.55-11.31c-1.08-3.11-1.85-6.34-2.12-9.69
		c-0.13-1.59-0.31-3.19-0.34-4.79c-0.03-1.76,0.41-3.45,0.77-5.15c0.14-0.67-0.01-1.41,0.15-2.07c0.46-1.89,0.85-3.82,1.58-5.6
		c1.12-2.7,2.24-5.41,3.93-7.86c2.85-4.14,6.17-7.71,10.21-10.77c3.62-2.73,7.52-4.64,11.76-5.96c3.25-1.01,6.54-1.91,10.02-1.8
		c1.64,0.06,3.28,0,4.92,0.01c1.9,0.02,3.73,0.3,5.62,0.72c2.13,0.47,4.26,1.02,6.27,1.73c1.78,0.63,3.62,1.45,5.18,2.94
		c0,3.43,0,6.97,0,10.85c-1.53-1.01-2.63-1.93-3.82-2.69c-2.75-1.77-5.76-2.76-8.83-3.8c-4.29-1.45-8.59-0.77-12.87-0.72
		c-1.86,0.02-3.69,1.1-5.55,1.64c-2.26,0.65-4.24,1.95-6.14,3.16c-2.03,1.3-4.04,2.9-5.54,4.9c-1.77,2.35-3.57,4.69-4.75,7.43
		c-1.22,2.83-2.18,5.7-2.72,8.78c-0.44,2.48-0.49,4.94-0.31,7.37c0.22,2.98,0.92,5.91,1.94,8.78c1.31,3.7,3.46,6.85,5.82,9.85
		c1.85,2.35,4.26,4.15,6.88,5.67c2.22,1.28,4.49,2.26,7.01,2.9c4.44,1.11,7.11,1.73,11.07,1.26c2.3-0.27,4.62-0.63,6.83-1.41
		c3.73-1.32,7.07-3.29,10.09-5.82C447.05,102.37,447.3,102.35,447.65,102.23z"/>
	<path class="st0" d="M356.84,57.55c-0.96,0.95-1.9,2.08-3.42,2.62c-0.93-0.87-1.66-1.95-2.52-2.9c-2.69-2.97-5.5-5.83-8.97-7.99
		c-2.32-1.45-4.8-2.51-7.29-3.55c-1.08-0.45-2.43-0.18-3.25-0.97c-2.98-0.31-5.8-0.67-8.67-0.67c-3.17,0.01-6.24,0.63-9.16,1.59
		c-4.01,1.31-7.65,3.46-11.02,6.08c-2.95,2.3-5.32,5.08-7.5,8.06c-1.78,2.44-3.09,5.19-4.08,7.98c-0.97,2.74-1.83,5.62-1.67,8.66
		c0.1,1.95,0.11,3.91,0,5.86c-0.09,1.57,0.89,2.97,0.59,4.24c3.83,13.26,12.27,21.72,25.27,25.96c2.01,0.3,4.26,0.55,6.5,0.95
		c1.36,0.25,2.91,0.37,4.18-0.04c1.7-0.55,3.45-0.22,5.16-0.74c1.41-0.43,2.91-0.81,4.26-1.35c2.83-1.13,5.58-2.48,8.16-4.2
		c3.98-2.65,7.11-6,9.5-10.1c0.27-1.94,1.65-3.52,1.69-5.59c0.02-0.78,0.68-1.66,0.78-2.53c0.13-1.23,0.03-2.49,0.03-3.74
		c-0.05-0.05-0.1-0.12-0.16-0.16c-0.06-0.04-0.13-0.09-0.19-0.09c-8.67,0-17.34,0-26.15,0c-1.33-1.32-0.4-2.99-0.71-4.68
		c1.95,0,3.73,0,5.51,0c1.8,0,3.59,0,5.39,0c1.8,0,3.59,0,5.39,0c1.8,0,3.59,0,5.39,0c1.8,0,3.6-0.06,5.39,0.02
		c1.73,0.07,3.52-0.33,5.29,0.33c0.2,4.27-0.5,8.27-1.01,12.56c-0.67,1.68-1.32,3.69-2.26,5.55c-2.59,5.12-6.15,9.43-11.1,12.47
		c-2.62,1.61-5.21,3.27-8.16,4.25c-2.27,0.76-4.55,1.44-6.91,1.92c-2.78,0.56-5.55,0.98-8.4,0.87c-4.73-0.18-9.22-1.29-13.63-2.96
		c-3.28-1.24-6.24-3.02-9-5.07c-3.02-2.23-5.8-4.76-7.97-7.93c-1.37-2-2.84-3.94-3.88-6.1c-1.35-2.83-2.75-5.69-3.07-8.87
		c-0.07-0.64-0.37-1.15-0.52-1.72c-0.56-2.06-0.43-4.13-0.42-6.2c0.01-2.67-0.31-5.39,0.9-7.93c-0.12-3.22,1.4-6.01,2.6-8.8
		c0.98-2.31,2.19-4.59,3.92-6.56c1.41-1.6,2.56-3.43,4.12-4.93c2.93-2.83,6.11-5.4,9.71-7.2c3.25-1.63,6.69-2.92,10.35-3.59
		c3.34-0.61,6.68-1.1,10.05-0.82c3.22,0.27,6.42,0.66,9.58,1.6c3.51,1.05,6.71,2.65,9.79,4.5c1.75,1.05,3.36,2.4,4.88,3.8
		c2.28,2.1,4.5,4.28,6.37,6.78C356.72,56.51,356.95,56.8,356.84,57.55z"/>
	<path class="st0" d="M167.98,101.48c1.27-0.37,2.28-1.37,3.75-1.59c1.18,0.62,1.21,2.01,1.77,3c1.75,3.11,3.83,5.89,6.89,7.77
		c1.5,0.92,3.04,1.95,4.87,2.12c2.45,0.23,4.87,1.37,7.37,0.3c2.28,0.15,4.29-0.7,6.29-1.65c4.9-2.33,7.93-6.24,9.72-11.25
		c0.44-1.23,0.62-2.5,0.58-3.81c-0.04-1.17-0.01-2.34-0.01-3.38c-0.24-0.53-0.44-0.94-0.61-1.36c-1.49-3.85-4.55-6.14-7.96-8.15
		c-3.95-2.33-8.17-4.12-12.15-6.39c-2.54-1.45-5.13-2.81-7.69-4.2c-3.34-1.82-5.64-4.19-6.94-6.66c-1.65-3.13-2.13-7.01-1.33-10.6
		c0.16-0.74,0-1.56,0.16-2.3c0.38-1.82,2.6-5.77,3.87-7.28c2.48-2.93,5.58-4.98,9.27-5.87c2.94-0.71,5.95-1.12,9.06-0.42
		c1.77,0.4,3.48,0.73,5.2,1.42c1.85,0.74,3.55,1.68,5.02,2.91c1.89,1.58,3.64,3.36,4.98,5.47c0.11,0.17,0.05,0.45,0.09,0.81
		c-0.88,1.07-2.05,1.81-3.44,2.43c-0.9-1.58-2.13-2.64-3.2-3.84c-1.83-2.05-4.16-3.42-6.68-4.14c-3.61-1.04-7.31-1.15-10.96,0.34
		c-3.13,1.28-5.28,3.58-7.08,6.27c-0.66,0.98-0.69,2.29-1.43,3.28c-0.23,1.11,0.3,2.34-0.52,3.39c0.66,1.2,0.39,2.53,0.52,3.99
		c0.94,0.8,1.21,2.19,2.05,3.3c1.19,1.57,2.64,2.66,4.25,3.7c2.46,1.6,5.12,2.81,7.73,4.13c4.54,2.31,9.04,4.69,13.56,7.02
		c1.75,0.9,3.07,2.29,4.42,3.65c1.29,1.3,2.4,2.64,3.18,4.4c1.89,4.27,2.22,7.11,1.28,11.46c-0.37,1.73-0.91,3.46-1.76,5.06
		c-1.7,3.2-3.74,6.09-6.79,8.18c-2.42,1.66-4.91,3.18-7.76,3.98c-3.17,0.9-6.42,1.69-9.69,1.14c-3.83-0.64-7.6-1.57-10.84-4.07
		c-3.91-3.01-6.94-6.63-8.99-11.1c-0.09-0.2-0.08-0.45-0.09-0.68C167.92,102.05,167.95,101.82,167.98,101.48z"/>
	<path class="st0" d="M577.61,116.46c-0.44,0.76-0.94,0.81-1.52,0.8c-2.5-0.02-4.99-0.01-7.51-0.01c-0.45-0.29-0.85-0.62-0.77-1.28
		c0.05-0.38,0.01-0.78,0.01-1.17c0-24.27,0-48.54,0-72.81c0-0.31,0-0.61,0-0.82c0.36-0.62,0.8-0.78,1.42-0.77
		c2.57,0.03,5.14,0.01,7.73,0.01c0.24,0.22,0.47,0.43,0.65,0.6C577.61,66.25,577.61,91.37,577.61,116.46z"/>
	<path class="st0" d="M247.22,40.97c1.21-1.08,2.61-0.27,3.84-0.6c0.26,0.23,0.5,0.43,0.76,0.67c0,25.13,0,50.26,0,75.53
		c-0.09,0.25-0.42,0.46-0.79,0.73c-1.19-0.31-2.58,0.48-3.81-0.59C247.22,91.54,247.22,66.34,247.22,40.97z"/>
	<path class="st0" d="M142,91.16c-4.82-15.24-40.13-17.65-78.85-5.39C24.42,98.03-3.06,120.32,1.76,135.56
		c4.82,15.24,40.13,17.65,78.85,5.39C119.34,128.68,146.82,106.39,142,91.16z M78.98,133.52c-30.38,9.62-58.08,7.73-61.87-4.23
		c-3.78-11.95,17.78-29.44,48.16-39.06c30.38-9.62,58.08-7.73,61.87,4.23C130.92,106.41,109.36,123.9,78.98,133.52z"/>
	<path class="st0" d="M71.97,2.38c0,0,4.89,1.7,4.46,6.48s-3.79,13.76-7.16,13.76S63.7,17.28,64.5,9.13
		C65.33,0.71,71.97,2.38,71.97,2.38z"/>
	<path class="st0" d="M47.3,8.05c0,0,11.03,16.4,18.94,18.38c11.11,2.78,40.43-6.79,40.43-6.79L83.83,33.91
		c0,0-8.82,4.39-6.85,16.83c1.98,12.44,20.07,71.74,20.07,71.74s-15.27-31.3-24.88-39.93c-9.12-8.19-12.44-2.97-12.44-2.97
		s-10.74,11.31-12.44,32.8c0,0-0.28-17.23,1.41-29.82s8.26-43.14,7.63-45.1c-5.87-18.47-6.65-20.9-6.65-20.9L47.3,8.05z"/>
</g>
</svg>
