<?xml version="1.0" encoding="utf-8"?>
<!-- Generator: Adobe Illustrator 25.2.3, SVG Export Plug-In . SVG Version: 6.00 Build 0)  -->
<svg version="1.1" id="Layer_1" xmlns="http://www.w3.org/2000/svg" xmlns:xlink="http://www.w3.org/1999/xlink" x="0px" y="0px"
	 viewBox="0 0 149.5 106.5" style="enable-background:new 0 0 149.5 106.5;" xml:space="preserve">
<style type="text/css">
	.st0{fill:#BABC7D;}
	.st1{fill:#243E45;}
	.st2{fill:#DCD9D3;}
	.st3{fill:#394B51;}
	.st4{fill:#FDD48A;}
	.st5{fill:#F4F2F1;}
	.st6{fill:#FBFBFA;}
	.st7{fill:#E1DFD8;}
	.st8{fill:#E7E6E2;}
	.st9{fill:#EFEDEA;}
	.st10{fill:#F5F5F5;}
	.st11{fill:#EBE9E5;}
	.st12{fill:#6A7527;}
	.st13{fill:none;}
	.st14{fill:#1B1F2A;}
	.st15{fill:#F36F11;}
	.st16{fill:#F4A269;}
</style>
<g id="_x34_tJjuw_1_">
	<g>
		<path class="st0" d="M0.3,38c0.1,0,0.2,0,0.3,0.1c0,11.1,0,22.2,0,33.3c0,0.3,0,0.5-0.3,0.7C0.3,60.7,0.3,49.4,0.3,38z"/>
		<path class="st1" d="M96.1,61.3c-1.6,1-3.2,1.9-3.4,4.2c-0.1,1.1-1.5,1-2.4,0.7c-1.1-0.4-1.7-0.1-2.2,1c-1.9,3.9-4.7,7.3-7.5,10.6
			c-1,1.2-2.1,2.3-3,3.5c-2,2.6-5.6,2.6-7.5,0C63.6,72.1,59.2,62,57.7,50.8c-0.2-1.6,1-2.6,2.2-3.3c2.3-1.3,4.1-3.1,5.7-5
			c2-2.4,4.9-3.1,7.5-4.3c3-1.4,5.8-2.9,9-3.8c0.6-0.2,1.1-0.3,1.7-0.3c0.3,1.8,1.6,3.4,1.3,5.5c-0.1,0.7,0.4,1.5,1.1,1.8
			c1.4,0.7,1.8,1.9,2.2,3.2c1.6,5.6,4.1,10.8,7.3,15.6C95.9,60.7,96,61,96.1,61.3z"/>
		<path class="st1" d="M59.2,62.2c2.2,6.3,5.1,12.2,8.7,17.8c2,3.1,4.3,5.9,6.6,8.7c0.9,1.2,0.6,1.6-0.5,2c-4.5,2-9.2,3.5-14.1,4.3
			c-5.4,0.9-10.8,1.4-16.2,1.3c-3.5-0.1-4.9-1.1-5.6-4c-0.4-1.4,0.3-2.7,0.6-3.9c1.4-4.6,2.7-9.4,5.1-13.7c0.1-0.2,0.2-0.4,0.3-0.6
			c1.2-1.3,1.5-2.5-0.2-3.8c-0.8-0.5-0.9-1.8-0.1-2.2c1.8-1,1.5-2.5,1.5-4c0-0.3,0-0.5,0-0.8c1.8-0.1,3.6-0.2,5.4-0.3
			c0.2,0,0.4,0,0.6,0c0.4,0,0.8-0.1,1.3-0.1C54.8,63,57,62.5,59.2,62.2z"/>
		<path class="st2" d="M148,75.2c0,0.9-0.2,1.7-0.9,2.3c-1,0.5-1.7,1.5-3,1.6c-0.5,0-0.4,0.6-0.5,0.9c-0.7,2.3-2.2,3.2-4.5,3.1
			c-1.3-0.1-2.5,0.2-3.1,1.8c-0.8,2.3-3.2,3.3-5.3,2.2c-1.2-0.6-2.2-1.1-3.5-0.6c-0.5,0.2-1.2,0-1.7,0c-0.8-0.6-1.7-1-2.2-2
			c-0.3-0.6-0.8-0.6-1.3-0.4c-2,0.7-3.7,0.1-5-1.5c-0.1-0.8-0.7-0.4-1.1-0.4c-2-0.2-3.3-1.1-3.8-3.1c-0.4-1.3-2-2.6-3.4-2.8
			c-1.6-0.2-2.9-0.7-3.6-2.4c1.7-0.2,3.2-0.9,4.8-1.3c0.8-0.2,1-0.6,1-1.3c2.7,0.6,4.5,2,5.4,4.7c0.4,1.4,1.3,2.7,1.8,4.1
			c0.4,1.1,0.8,1.1,1.7,0.4c3.4-2.8,6.8-5.6,10.2-8.3c0.5,1,1.4,0.9,2.2,0.6c3.7-1.3,7.4-2.7,10.7-4.8c1.1-0.7,2.4-1.2,3.1-2.4
			c0.4-0.8,1-1,1.8-1c0.1,0.2,0.3,0.5,0.3,0.7c-0.2,2.3-0.4,4.6-0.7,7C147,73.3,147,74.4,148,75.2z"/>
		<path class="st3" d="M16.3,57.2c0.1,5.1-1.4,9.9-2.1,14.9c-0.5,3.7-0.7,7.5-0.2,11.2c0.2,1.7,0.3,3.3,0.4,5.1
			c-1.3-0.3-2.2-1.1-3.1-1.8c-1.2-0.9-2.4-1.9-3.6-2.9c-1.4-1.2-2-2.5-1.3-4.3c1.1-3,1.9-6.1,3-9.1c0.9-2.5,0.4-4.7-1.1-6.6
			c-1.8-2.3-1.9-4.7-0.9-7.3C8,55,7.9,53.4,8.3,52c0.9,0.4,1.8,1,2.8,0.9c0.7-0.1,1.1,0.3,1.2,1C12.8,55.9,14.2,56.9,16.3,57.2z"/>
		<path class="st3" d="M116.9,82.5c1.3,1.6,3,2.2,5,1.5c0.6-0.2,1.1-0.1,1.3,0.4c0.5,0.9,1.4,1.4,2.2,2c-1.8,1.8-3.4,3.7-5.3,5.4
			c-0.8,0.8-2.1,1.1-3.3,1c-3.9-0.5-6.6,1.3-8.9,4.3c-1.7,2.2-3.6,4.3-5.4,6.5c-0.4,0.5-0.8,0.8-1.5,0.7c-3.4-0.5-6.6-1.5-9.7-3.3
			c2.2-1.2,4.3-2.2,6.3-3.4c4.2-2.3,8.1-5.2,11.4-8.7C111.5,86.4,114.3,84.5,116.9,82.5z"/>
		<path class="st4" d="M64.1,26.7c-2.1,1.8-3.8,3.9-5.2,6.4c-2.1-1-4.1-2.1-6.2-3.1c-0.4-0.2-0.8-0.6-1.2,0
			c-0.8,1.2-1.9,2.2-2.4,3.7c-0.8,0.7-1,1.9-1.9,2.6c-2.1-2.6-3.3-5.5-4.2-8.7c0-1.2-0.1-2.3,0-3.5c0.3-3.8,2.6-5.6,6.4-5.2
			c1.1,0.1,2,0.9,3.1,0.9c3.1,1.7,6.2,3.4,9.2,5.1C62.4,25.6,63.5,25.8,64.1,26.7z"/>
		<path class="st0" d="M47.2,36.2c0.9-0.7,1.1-1.9,1.9-2.6c0.5,0.3,1.1,0.6,1.6,1c2.1,1.4,4,3,6.2,4.2c-0.2,2-0.4,4-0.5,6
			c-0.2,3.9,0.5,7.7,1.2,11.5c-0.4-0.2-0.8-0.4-1.2-0.7c-2.5-2.3-4.9-4.8-8.4-5.4c-1.1-1.9-2.4-3.6-4.2-4.9
			c-0.5-0.4-0.9-0.7-0.6-1.4C44.6,41.3,46.3,38.9,47.2,36.2z"/>
		<path class="st5" d="M92.3,10.4c1.2-0.9,2.5-0.9,3.7-0.3c1.6,0.8,2.8,0.7,3.8-0.9c0.1-0.2,0.4-0.3,0.6-0.4
			c0.3,0.2,0.5,0.5,0.3,0.8c-1.8,1.9-2.1,4.3-2.4,6.7c-0.1,0.8-1,1.5-0.5,2.4c0.7,1.3,0.5,2.6,0.9,4c0.2,0.9,0.5,1.6,1.6,1.6
			c0.4,1.8,0.9,3.5,1.3,5.3c-1.1,1.2-2.2,2.4-3.2,3.6c-0.3,0.3-0.6,0.7-0.8,1c-1.4-0.3-2.1-1.5-2.8-2.6c-1.5-2.7-3.1-5.4-3.1-8.7
			c0-0.1,0-0.2-0.1-0.3c-1-1.1-0.8-2.4-0.8-3.8c0-1.1,0-2.2,0-3.3c0-1.1,0-2.2,1-2.9C92.3,11.9,92.4,11.1,92.3,10.4z"/>
		<path class="st6" d="M111.2,10.6c0.4,0.3,0.8,0.6,0.8,1.1c0.1,1.4,1.4,1.7,2.1,1.5c2.5-0.5,4.1,0.2,5.6,2.4
			c0.7,1.1,2.2,1.7,2.5,3.3c-0.2,0.3-0.5,0.5-0.5,0.8c0,2.6-2.7,3.9-3,6.4c-4.4-1.9-8.6-4.1-13.3-5.2c-0.8-1.8,0.1-6.6,1.7-7.8
			C108.3,12.2,109,10.1,111.2,10.6z"/>
		<path class="st7" d="M147.6,64.4c-0.8,0-1.3,0.2-1.8,1c-0.7,1.2-2,1.7-3.1,2.4c-3.4,2.1-7,3.5-10.7,4.8c-0.8,0.3-1.7,0.4-2.2-0.6
			c0.1-2.1,0.2-4.2,0.2-6.3c0-1.5,0.3-2.9-0.2-4.4c1.2-0.1,2,1.3,3.4,0.8c2.5-0.8,5.1-1.5,7.7-2.1c0.8-0.2,1.1-0.6,1.1-1.3
			c0.6-0.2,0.5-0.4,0.1-0.7c0-0.1-0.1-0.3-0.1-0.4c1.1-0.3,2.3,0,3.4-0.5c-0.1,0.5,0.2,0.7,0.5,1c1.1,1.1,1.7,2.5,1.1,4
			C146.6,63.2,147.6,63.6,147.6,64.4z"/>
		<path class="st6" d="M24.6,32.2c-0.3,0.6-0.7,1.2,0.2,1.8c-1.4-0.3-2.3,0.2-3.2,1c-0.9,0.8-4.6,0.2-6-0.7
			c-4.6-2.8-4.7-6.6-3.4-10.2c0.3-0.4,0.4-0.9,0.9-1.2c0.2,0.3,0.6,1,0.8,0.5c0.3-0.7,1.2-0.9,1.1-1.8c0,0,0.1,0,0.1,0
			c0.2,0,0.4-0.1,0.6-0.1c0.5-0.2,1,0.2,1.4-0.3c1.4-1.9,3.2-1.9,5.2-1.3c0.3,0.4,0.7,0.4,1.1,0.4c1.2,0,2.2,0.4,3,1.4
			c-1,0.5-2.1,1.1-3.1,1.5c-0.9,0.4-1.1,0.9-0.8,1.9C23.2,27.4,23.9,29.8,24.6,32.2z"/>
		<path class="st8" d="M47.9,50.1c3.6,0.6,5.9,3.1,8.4,5.4c0.2,1.2-0.9,0.7-1.5,0.9c1.5,1.5,1.5,1.4,0,3c-1,1.1-2.2,2-2.4,3.6
			c-0.4,0-0.8,0.1-1.3,0.1c0-0.2-0.1-0.4-0.3-0.4c-0.2,0-0.3,0.2-0.3,0.4c-1.8,0.1-3.6,0.2-5.4,0.3c-2.2-0.2-4.3-0.3-6.5-0.5
			c-0.5-0.1-0.9,0.2-1.3,0.5c-1.8,1.1-3.2,0.9-4.9-0.4c2.4-0.2,4.2-1.9,6.4-2.7c0.1,0,0.1-0.4,0.2-0.6c1,0.2,2,0.3,3,0.5
			c2.8,0.5,2.7,0.5,3.2-2.2C45.8,55.2,45.3,52.1,47.9,50.1z"/>
		<path class="st9" d="M92.3,10.4c0.1,0.7,0,1.5-0.6,1.9c-1.1,0.8-1.1,1.8-1,2.9c0,1.1,0,2.2,0,3.3c0,1.3-0.1,2.7,0.8,3.8
			c0.1,0.1,0.1,0.2,0.1,0.3c0,3.3,1.5,6,3.1,8.7c0.6,1.2,1.4,2.3,2.8,2.6c-1.5,1.9-3,3.8-4.4,5.7c-0.2-0.1-0.5-0.2-0.5-0.3
			c0.4-1.8-1.1-2.8-1.9-4.1c-2.3-3.8-5.1-7.4-4.7-12.2c1.2-0.9,1.6-2.9,1-4.3c-1-2-0.3-4.6,1.7-5.4c1.2-0.5,2.1-1,2.6-2.2
			C91.4,10.8,91.8,10.5,92.3,10.4z"/>
		<path class="st5" d="M3.9,33.8c1.4,0,2.3,0.6,3,1.9c1.4,2.8,3.7,4.6,6.6,5.8c0.9,0.4,1.9,0.6,2.6,1.3c0.9,0.9,1.4-0.4,2-0.7
			c-0.2,2.4-0.4,4.7-0.9,7c-0.8-0.1-1.7,0.3-2.5,0c-2.7-1-5.5-2-8.2-3.1c-0.6-0.2-1.2-0.8-1.2-1.4c-0.1-1-0.9-1.2-1.4-1.7
			c1.4-1.7,1-3.2-0.2-4.9C2.6,36.8,2.7,35.2,3.9,33.8z"/>
		<path class="st9" d="M3.8,43.1c0.6,0.5,1.3,0.7,1.4,1.7c0.1,0.6,0.7,1.1,1.2,1.4c2.7,1.1,5.5,2,8.2,3.1c0.9,0.3,1.7-0.1,2.5,0
			c0,1.7-0.3,3.4-0.6,5c-0.1,0.6,0,1,0.7,1c0.2-0.1,0.3-0.1,0.5-0.2c0.9-0.1,1.7-0.2,2.6-0.3c0.1,0,0.2,0,0.3,0
			c1.6-0.2,3.2-0.4,4.8-0.6c0.2,0.1,0.4,0.2,0.7,0.2c0.5,0.4,1,0.7,1.6,1.1c0,0.3-0.1,0.7,0.3,0.9c0.3,0.2,0.4-0.2,0.5-0.4
			c0.2,0.1,0.3,0.2,0.5,0.4c0,0.6,0,1.5-0.8,1.2c-1.4-0.5-2.5-0.4-3.3,0.9c-0.1,0.1-0.4,0-0.6,0c-1.9-0.6-3.6,0.2-5.2,1.1
			c-0.9-0.2-1.4-0.9-1.9-1.6c-0.2-0.3-0.3-0.8-0.9-0.6c-2.1-0.2-3.4-1.3-3.9-3.4c-0.1-0.6-0.5-1-1.2-1c-1.1,0.1-1.9-0.4-2.8-0.9
			c-0.6-0.8-1.2-1.5-1.3-2.5c-0.1-0.8-0.7-0.8-1.2-1C3.6,47.5,2.8,45.3,3.8,43.1z M26.6,56.2c-0.1-0.1-0.1-0.1-0.2-0.1
			c0,0-0.1,0.1-0.1,0.1c0,0.1,0.1,0.2,0.1,0.2C26.5,56.3,26.5,56.2,26.6,56.2z"/>
		<path class="st10" d="M111.2,10.6c-2.2-0.5-2.9,1.6-4.2,2.5c-1.6,1.2-2.4,6-1.7,7.8c-3.9-0.2-4.7,0.2-5.1,3.1
			c-1.1,0.1-1.4-0.7-1.6-1.6c-0.3-1.3-0.2-2.7-0.9-4c-0.4-0.8,0.4-1.6,0.5-2.4c0.4-2.4,0.6-4.8,2.4-6.7c0.3-0.3,0-0.6-0.3-0.8
			c2-1.2,3.7-1.1,5.3,0.5c0.5,0.5,0.9,0.6,1.6,0.4C108.8,9.2,110.1,9.5,111.2,10.6z"/>
		<path class="st11" d="M86,23.1c-0.3,4.8,2.4,8.4,4.7,12.2c0.8,1.3,2.3,2.3,1.9,4.1c0,0.1,0.3,0.2,0.5,0.3c-1,1.7-2.3,3.2-3.6,4.7
			c-0.3,0.1-0.6,0.2-0.9,0.3c-0.5-1.3-0.9-2.5-2.2-3.2c-0.7-0.3-1.2-1.2-1.1-1.8c0.3-2-1-3.6-1.3-5.5c0.2-1.2,1-2.2,1.4-3.2
			c0.4-1-1.5-1.4-1.9-2.6C82.7,26.2,83.7,24,86,23.1z"/>
		<path class="st9" d="M52.5,19.7c-1.1,0.1-2-0.8-3.1-0.9c-3.8-0.4-6.1,1.4-6.4,5.2c-0.1,1.2,0,2.3,0,3.5c-2.1-2.4-4.2-4.9-6-7.5
			c1-1.1,0.5-2.5,0.9-3.7c0.4-0.1,0.8-0.1,1.3-0.2c1.9,0.3,3.3-0.7,4.7-1.7c1.2-0.2,2.4-0.2,3.5,0.6c0.5,0.4,0.9,0.3,1.4,0
			c1.2-0.5,2.3-0.6,3.4,0.2c0,0.5-0.5,1-0.2,1.4C53.1,17.4,52.7,18.6,52.5,19.7z"/>
		<path class="st7" d="M110.8,71.2c0.1,0.7-0.1,1.1-1,1.3c-1.6,0.4-3.1,1.1-4.8,1.3c-0.3-1.2-0.9-1.8-2.2-2.1
			c-1.6-0.4-2.4-1.9-2.5-3.5c-0.1-1.1-0.5-1.8-1-2.5c-1.1-1.4-2.1-2.9-3.2-4.3c-0.1-0.3-0.3-0.6-0.4-0.9c0.5,0,0.8,0.4,1.3,0.5
			c0.7,0.2,1.4,0.4,1.7-0.6c1.6,1.7,3.2,3.3,4.7,5C105.5,67.6,107.5,70.1,110.8,71.2z M109.2,71.2l0,0.1l0.1-0.1L109.2,71.2z"/>
		<path class="st8" d="M52.5,19.7c0.2-1.1,0.6-2.2-0.5-3.2c-0.3-0.3,0.2-0.9,0.2-1.4c0.7,0.4,1.3,0.6,2.2,0.1c1.4-0.7,2.7-0.5,4,0.6
			c0.5,0.4,0.9,1.2,1.7,1.2c0.1,0.5,0.2,1.1,0.9,1.2c1.3,0.1,1.3,1.1,1.4,1.9c0.1,1.6,0.2,3.1-0.6,4.6
			C58.7,23.1,55.6,21.4,52.5,19.7z"/>
		<path class="st11" d="M19.1,59.4c1.6-0.9,3.2-1.7,5.2-1.1c0.2,0.1,0.5,0.1,0.6,0c0.9-1.3,1.9-1.4,3.3-0.9c0.8,0.3,0.8-0.6,0.8-1.2
			c1.5,0.8,2.7,2.2,4.5,2.3c0.2,0.1,0.4,0.1,0.6,0.2c1.5,0.3,3,0.6,4.5,0.8c0.1,0,0.2,0.1,0.3,0.1c0,0,0.1,0,0.1,0s0.1,0.1,0.1,0.1
			c-0.1,0.2-0.1,0.5-0.2,0.6c-2.2,0.8-4,2.5-6.4,2.7c-0.5-0.4-0.9-0.8-1.7-0.5c-1.8,0.7-3.5,0.1-4.6-1.5c-1-1.3-2.8-1.9-4.4-1.4
			C20.9,59.8,19.9,59.9,19.1,59.4z"/>
		<path class="st9" d="M133.4,29.6c1,0.4,1.8,1.2,1.8,2.2c0.1,1.6,1,2.2,2.2,2.8c-0.3,0.7-0.1,1.2,0.8,1.2c0.1,0.2,0.2,0.4,0.4,0.6
			c-0.1,0.8-0.2,1.7-0.3,2.5c-2.5,1.3-3.7,3.9-5.9,5.6c-0.7-0.1-1.5-0.1-2.2-0.2c-0.1,0-0.2,0-0.3,0c-0.7-0.1-1.5-0.2-2.2-0.3
			c0.5-0.2,1-0.4,1.5-0.6c0.1-0.1,0.3-0.2,0.4-0.3c1.2-0.8,2.3-1.7,3.2-2.9c0.4-0.1,0.7-0.2,0.3-0.6c1-2.8-0.5-4.7-2.3-6.6
			c0.1-0.6,0.4-0.9,0.9-1C133.4,31.9,133.5,30.8,133.4,29.6z"/>
		<path class="st10" d="M118.7,26.1c0.4-2.4,3-3.8,3-6.4c0-0.3,0.3-0.5,0.5-0.8c2.2-0.2,3.7,0.7,4.7,2.6c0.1,1-0.1,2,0.7,2.8
			c-0.6,2-1.4,3.8-3.6,4.5C122.2,28.1,120.4,27.2,118.7,26.1z"/>
		<path class="st7" d="M61.7,24.8c0.8-1.4,0.7-3,0.6-4.6c0-0.9-0.1-1.8-1.4-1.9c-0.6-0.1-0.7-0.7-0.9-1.2c1.7-0.7,3.5-1.5,5.3-0.3
			c1,0.6,1.2,2.4,2.9,1.9c-0.6,1.7-0.2,3.3,0.7,4.8c-1.7,1.1-3.4,2.2-5,3.2C63.5,25.8,62.4,25.6,61.7,24.8z"/>
		<path class="st12" d="M56.9,38.8c-2.2-1.2-4.1-2.8-6.2-4.2c-0.5-0.3-1.1-0.6-1.6-1c0.5-1.4,1.6-2.4,2.4-3.7c0.4-0.6,0.8-0.2,1.2,0
			c2.1,1,4.2,2.1,6.2,3.1C58.3,34.9,57.6,36.8,56.9,38.8z"/>
		<path class="st5" d="M124.1,28.9c2.2-0.7,3-2.6,3.6-4.5c0.7,0.1,1.5,0.3,2.2,0.4c1.3,0.8,2.3,1.8,2,3.5c-0.2,1.3,1.2,0.7,1.5,1.3
			c0.1,1.3,0,2.4-1.6,2.5c-0.5,0.1-0.9,0.4-0.9,1C128.7,31.4,126.2,30.4,124.1,28.9z"/>
		<path class="st5" d="M37.9,16.2c-0.4,1.2,0,2.6-0.9,3.7c-0.2-0.3-0.5-0.5-0.7-0.8c0,0-0.1-0.1-0.1-0.1c-0.2-0.3-0.4-0.6-0.6-0.8
			c0-0.4,0.1-0.9-0.6-0.5c-2.9,1.3-5.8,2.6-8.7,4c-0.7-1-1.7-1.4-3-1.4c-0.4,0-0.8,0-1.1-0.4c1.2-2,2.9-2.8,4.9-2.1
			c1.5,0.5,2.7,0.1,3.7-0.8c1.5-1.4,3.1-1.9,4.9-0.8C36.5,16.5,37.2,16.2,37.9,16.2z"/>
		<path class="st11" d="M132.4,44.6c2.1-1.7,3.4-4.3,5.9-5.6c0.5,0.8,0.9,1.5,1.4,2.3c0.5,1.3,0.9,2.5,2.3,3.2
			c0.5,0.3,1,0.8,1.1,1.5c-0.6,0.7-1.5,0.8-2.3,1c-0.1-1.2-0.7-1.6-1.9-1.7C136.6,45.2,134.5,44.8,132.4,44.6z"/>
		<path class="st8" d="M140.7,47c0.8-0.2,1.7-0.3,2.3-1c0.6,1,0.2,2,0.2,3c-0.1,1.4,0.3,2.6,1.5,3.6c1.6,1.3,1.7,2.5,0.8,4.5
			c-1.1,0.5-2.3,0.2-3.4,0.5c0,0-0.1-0.1-0.1-0.1c-0.1-0.1-0.1-0.2-0.2-0.3C141.4,53.8,140.8,50.4,140.7,47z"/>
		<path class="st7" d="M52.5,63c0.2-1.6,1.4-2.6,2.4-3.6c1.4-1.5,1.5-1.5,0-3c0.6-0.2,1.7,0.3,1.5-0.9c0.4,0.2,0.8,0.4,1.2,0.7
			c0.5,2,1.1,4,1.6,6C57,62.5,54.8,63,52.5,63z"/>
		<path class="st2" d="M69.1,23.4c-0.9-1.5-1.3-3.1-0.7-4.8c0.3,0,0.7-0.1,1-0.1c1.5,1.1,3.5,0.2,5.2,1.6
			C72.7,21.2,70.9,22.3,69.1,23.4z"/>
		<path class="st1" d="M43.9,14.3c-1.4,1-2.8,2-4.7,1.7c-0.6-1.3,0.1-1.7,1.2-1.8C41.5,14.2,42.7,14.1,43.9,14.3z"/>
		<path class="st1" d="M139.6,41.3c-0.5-0.8-0.9-1.5-1.4-2.3c0.1-0.8,0.2-1.7,0.3-2.5c1.3,0.9,1.6,2.5,2.2,3.8
			C141,40.9,140.1,41,139.6,41.3z"/>
		<path class="st3" d="M129.8,24.7c-0.7-0.1-1.5-0.3-2.2-0.4c-0.8-0.8-0.6-1.8-0.7-2.8C128.4,22.2,129.3,23.3,129.8,24.7z"/>
		<path class="st3" d="M69.4,18.5c-0.3,0-0.7,0.1-1,0.1c-1.7,0.6-2-1.2-2.9-1.9C66.9,17.1,68.6,17,69.4,18.5z"/>
		<path class="st10" d="M14.9,21.6c0,0.8-0.9,1.1-1.1,1.8c-0.2,0.5-0.6-0.2-0.8-0.5C13.4,22.2,14.1,21.8,14.9,21.6z"/>
		<path class="st11" d="M138.1,35.8c-0.9,0-1-0.5-0.8-1.2C137.8,34.9,138.1,35.3,138.1,35.8z"/>
		<g>
			<path class="st13" d="M15.5,34.3c1.4,0.9,5.1,1.5,6,0.7c0.9-0.8,1.8-1.3,3.2-1c-0.9-0.6-0.5-1.2-0.2-1.8c0.3,1.5,1.7,1.9,2.7,2.7
				c-0.5,0.3-1,0.5-1.5,0.8c-1.7,1-3.2,2.2-5,3.1c-1.5,0.8-2.8,1.6-2.7,3.5c-0.7,0.2-1.1,1.6-2,0.7c-0.8-0.8-1.7-1-2.6-1.3
				c-2.9-1.2-5.2-3-6.6-5.8c-0.6-1.3-1.6-1.9-3-1.9c-1.2,1.4-1.3,3-0.3,4.4c1.2,1.7,1.6,3.2,0.2,4.9c-1,2.3-0.2,4.4,2,5.5
				c0.5,0.2,1.2,0.2,1.2,1c0.1,1,0.7,1.7,1.3,2.5c-0.5,1.5-0.4,3-0.9,4.5c-1,2.6-0.9,5,0.9,7.3c1.4,1.9,2,4.1,1.1,6.6
				c-1.1,3-1.9,6.1-3,9.1c-0.7,1.9-0.1,3.2,1.3,4.3c1.2,1,2.3,2,3.6,2.9c0.9,0.7,1.8,1.5,3.1,1.8c-0.1-1.8-0.2-3.5-0.4-5.1
				c-0.5-3.8-0.3-7.5,0.2-11.2c0.7-5,2.2-9.8,2.1-14.9c0.6-0.2,0.7,0.3,0.9,0.6c0.5,0.7,1,1.4,1.9,1.6c0.9,0.6,1.8,0.5,2.7,0.2
				c1.6-0.4,3.4,0.1,4.4,1.4c1.1,1.5,2.8,2.2,4.6,1.5c0.9-0.3,1.2,0,1.7,0.5c1.7,1.4,3.1,1.5,4.9,0.4c0.4-0.2,0.7-0.5,1.3-0.5
				c2.2,0.2,4.3,0.4,6.5,0.5c0,0.3,0,0.5,0,0.8c0,1.5,0.3,3-1.5,4c-0.8,0.4-0.6,1.7,0.1,2.2c1.7,1.2,1.4,2.4,0.2,3.8
				c-0.1,0.2-0.2,0.4-0.3,0.6c-2.3,4.3-3.6,9-5.1,13.7c-0.4,1.2-1,2.4-0.6,3.9c0.7,2.9,2.1,3.9,5.6,4c5.5,0.1,10.9-0.4,16.2-1.3
				c4.9-0.8,9.5-2.3,14.1-4.3c1.1-0.5,1.5-0.9,0.5-2c-2.3-2.8-4.6-5.6-6.6-8.7c-3.6-5.6-6.5-11.5-8.7-17.8c-0.5-2-1.1-4-1.6-6
				c-0.7-3.8-1.3-7.6-1.2-11.5c0.1-2,0.3-4,0.5-6c0.7-1.9,1.3-3.8,2-5.7c1.3-2.4,3-4.6,5.2-6.4c1.7-1.1,3.4-2.2,5-3.2
				c1.8-1.1,3.6-2.2,5.5-3.4c-1.7-1.3-3.8-0.4-5.2-1.6c-0.9-1.5-2.5-1.4-3.9-1.7c-1.9-1.1-3.6-0.4-5.3,0.3c-0.8-0.1-1.2-0.8-1.7-1.2
				c-1.3-1.2-2.7-1.3-4-0.6c-0.9,0.5-1.5,0.2-2.2-0.1c-1.1-0.8-2.3-0.7-3.4-0.2c-0.5,0.2-0.9,0.4-1.4,0c-1.1-0.8-2.3-0.8-3.5-0.6
				c-1.1-0.2-2.3-0.2-3.5-0.1c-1.1,0.1-1.8,0.5-1.2,1.8c-0.4,0.1-0.8,0.1-1.3,0.2c-0.7-0.1-1.4,0.3-2.1-0.2
				c-1.8-1.1-3.4-0.6-4.9,0.8c-1,1-2.2,1.4-3.7,0.8c-1.9-0.7-3.7,0.1-4.9,2.1c-2-0.6-3.9-0.5-5.2,1.3c-0.4,0.6-1,0.1-1.4,0.3
				c-0.2,0-0.4,0.1-0.6,0.1l-0.1,0c-0.8,0.2-1.5,0.5-2,1.3c-0.5,0.3-0.6,0.8-0.9,1.2C10.8,27.7,10.9,31.5,15.5,34.3z"/>
			<path class="st13" d="M4.4,31.6c-0.5-1,1.5-3.7,1.3-4.4c-0.4,0.4-0.8,0.9-1.1,1.4C4.6,29.7,4,30.6,4.4,31.6z"/>
			<path class="st14" d="M148.4,58.8c-4.6-20.7-15.2-37.2-33.7-48.1c-3.9-2.3-8.1-3.6-12.6-3.8c-0.2,0-0.4-0.1-0.5-0.3h-1.9
				c-0.2,0.6-0.7,0.3-1.1,0.3c-2.6,0.4-5,1.2-7.2,2.6c-4.8,3.1-9.7,6.1-14.5,9.2c-0.7,0.4-1.2,0.7-2,0.3c-10-4.6-20.6-6.2-31.5-5.8
				c-10,0.3-26.2,4-34.4,10.6c0,0-1.7,1.8-3.1,3.5c-0.7,0.9,3-0.6,3.9-2c0.5-0.8,1.5-1,2.5-1.1c0.3-0.4,0.4-0.9,0.9-1.2
				c0.5-0.7,1.2-1.1,2-1.3l0.4,0c0,0,0.1,0,0.1,0c0.5-0.4,1.1,0.2,1.6-0.4c1.4-1.9,3.2-1.9,5.2-1.3c1.2-2,2.9-2.8,4.9-2.1
				c1.5,0.5,2.7,0.1,3.7-0.8c1.5-1.4,3.1-1.9,4.9-0.8c0.8,0.4,1.4,0.1,2.1,0.2l1.3-0.2c-0.6-1.3,0.1-1.7,1.2-1.8
				c1.2-0.1,2.3-0.1,3.5,0.1c1.2-0.2,2.4-0.2,3.5,0.6c0.5,0.4,0.9,0.3,1.4,0c1.2-0.5,2.3-0.6,3.4,0.2c0.7,0.4,1.3,0.6,2.2,0.1
				c1.4-0.7,2.7-0.5,4,0.6c0.5,0.4,0.9,1.2,1.7,1.2c1.7-0.7,3.5-1.5,5.3-0.3c1.4,0.3,3,0.2,3.9,1.7c1.5,1.1,3.5,0.2,5.2,1.6
				c-1.9,1.2-3.7,2.3-5.5,3.4c-1.7,1.1-3.4,2.2-5,3.2c-2.4,2-4.3,4.5-5.7,7.3c-0.5,1.9-1,3.7-1.6,5.5c-0.2,1.7-0.4,3.5-0.4,5.2
				c-0.2,3.9,0.5,7.7,1.2,11.6c0.4,1.5,0.8,3.1,1.2,4.6c2.3,6.7,5.3,13,9.1,19c2,3.1,4.3,5.9,6.6,8.7c0.9,1.2,0.6,1.6-0.5,2
				c-4.5,2-9.2,3.5-14.1,4.3c-5.4,0.9-10.8,1.4-16.2,1.3c-3.5-0.1-4.9-1.1-5.6-4c-0.4-1.4,0.3-2.7,0.6-3.9c1.4-4.6,2.7-9.4,5.1-13.7
				c0.1-0.2,0.2-0.4,0.3-0.6c1.2-1.3,1.5-2.5-0.2-3.8c-0.8-0.5-0.9-1.8-0.1-2.2c2.1-1.1,1.4-3,1.6-4.8c-2.2-0.2-4.3-0.3-6.5-0.5
				c-0.5-0.1-0.9,0.2-1.3,0.5c-1.8,1.1-3.2,0.9-4.9-0.4c-0.5-0.4-0.9-0.8-1.7-0.5c-1.8,0.7-3.5,0.1-4.6-1.5c-1-1.3-2.8-1.9-4.4-1.4
				c-0.9,0.2-1.9,0.3-2.7-0.2c-0.9-0.2-1.4-0.9-1.9-1.6c-0.2-0.3-0.3-0.8-0.9-0.6c0.1,5.1-1.4,9.9-2.1,14.9
				c-0.5,3.7-0.7,7.5-0.2,11.2c0.2,1.7,0.3,3.3,0.4,5.1c-1.3-0.3-2.2-1.1-3.1-1.8c-1.2-0.9-2.4-1.9-3.6-2.9c-1.4-1.2-2-2.5-1.3-4.3
				c1.1-3,1.9-6.1,3-9.1c0.9-2.5,0.4-4.7-1.1-6.6c-1.8-2.3-1.9-4.7-0.9-7.3C8,55,7.9,53.4,8.3,52c-0.6-0.8-1.2-1.5-1.3-2.5
				c-0.1-0.8-0.7-0.8-1.2-1c-2.2-1-3-3.2-2-5.5c1.4-1.7,1-3.2-0.2-4.9c-1-1.4-0.9-3,0.3-4.4c0.6-0.6,1-1.2,0.6-2.2
				c-0.4-1,0.1-2,0.2-3c-2,2.7-3.8,6.4-4,9.5c0,0,0,0,0,0c0,11.1,0,22.2,0,33.3c0,0.3,0,0.5-0.3,0.7v0.6c0.1,0.1,0.3,0.2,0.3,0.3
				c1.2,6.8,5.4,11.3,10.8,15c6.5,4.4,13.8,6.8,21.5,8.1c13.1,2.2,26.1,1.3,38.6-3.4c1.3-0.5,2.5-1,3.7-1.6c0.8-0.4,1.3-0.3,2,0.4
				c4.8,4.8,10.1,8.9,16.3,11.6c2.7,1.2,5.5,2,8.4,2.4c0.3,0,0.7-0.1,0.8,0.3h3.2c0.5-0.6,1.2-0.3,1.7-0.4c2.3-0.5,4.5-1.3,6.4-2.5
				c8.7-5.5,17.3-11,26-16.4c3-1.9,5.1-4.5,6.5-7.6c0.2-0.4,0.5-0.8,0.3-1.4c-1,0.5-1.7,1.5-3,1.6c-0.5,0-0.4,0.6-0.5,0.9
				c-0.7,2.3-2.2,3.2-4.5,3.1c-1.3-0.1-2.5,0.2-3.1,1.8c-0.8,2.3-3.2,3.3-5.3,2.2c-1.2-0.6-2.2-1.1-3.5-0.6c-0.5,0.2-1.2,0-1.7,0
				c-1.8,1.8-3.4,3.7-5.3,5.4c-0.8,0.8-2.1,1.1-3.3,1c-3.9-0.5-6.6,1.3-8.9,4.3c-1.7,2.2-3.6,4.3-5.4,6.5c-0.4,0.5-0.8,0.8-1.5,0.7
				c-3.4-0.5-6.6-1.5-9.7-3.3c2.2-1.2,4.3-2.2,6.3-3.4c4.2-2.3,8.1-5.2,11.4-8.7c2.3-2.4,5.1-4.3,7.7-6.3c-0.1-0.8-0.7-0.4-1.1-0.4
				c-2-0.2-3.3-1.1-3.8-3.1c-0.4-1.3-2-2.6-3.4-2.8c-1.6-0.2-2.9-0.7-3.6-2.4c-0.3-1.2-0.9-1.8-2.2-2.1c-1.6-0.4-2.4-1.9-2.5-3.5
				c-0.1-1.1-0.5-1.8-1-2.5c-1.1-1.4-2.1-2.9-3.2-4.3c-1.6,1-3.2,1.9-3.4,4.2c-0.1,1.1-1.5,1-2.4,0.7c-1.1-0.4-1.7-0.1-2.2,1
				c-1.9,3.9-4.7,7.3-7.5,10.6c-1,1.2-2.1,2.3-3,3.5c-2,2.6-5.6,2.6-7.5,0C63.6,72.1,59.2,62,57.7,50.8c-0.2-1.6,1-2.6,2.2-3.3
				c2.3-1.3,4.1-3.1,5.7-5c2-2.4,4.9-3.1,7.5-4.3c3-1.4,5.8-2.9,9-3.8c0.6-0.2,1.1-0.3,1.7-0.3c0.2-1.2,1-2.2,1.4-3.2
				c0.4-1-1.5-1.4-1.9-2.6c-0.7-2.2,0.2-4.4,2.5-5.3c1.2-0.9,1.6-2.9,1-4.3c-1-2-0.3-4.6,1.7-5.4c1.2-0.5,2.1-1,2.6-2.2
				c0.2-0.4,0.6-0.8,1.1-0.9c1.2-0.9,2.5-0.9,3.7-0.3c1.6,0.8,2.8,0.7,3.8-0.9c0.1-0.2,0.4-0.3,0.6-0.4c2-1.2,3.7-1.1,5.3,0.5
				c0.5,0.5,0.9,0.6,1.6,0.4c1.5-0.5,2.8-0.2,3.9,1c0.4,0.3,0.8,0.6,0.8,1.1c0.1,1.4,1.4,1.7,2.1,1.5c2.5-0.5,4.1,0.2,5.6,2.4
				c0.7,1.1,2.2,1.7,2.5,3.3c2.2-0.2,3.7,0.7,4.7,2.6c1.4,0.6,2.4,1.7,2.9,3.2c1.3,0.8,2.3,1.8,2,3.5c-0.2,1.3,1.2,0.7,1.5,1.3
				c1,0.4,1.8,1.2,1.8,2.2c0.1,1.6,1,2.2,2.2,2.8c0.5,0.4,0.9,0.9,0.8,1.6c1.7,0.9,2,2.6,2.6,4c0.3,0.7-0.7,0.7-1.1,1
				c0.5,1.3,0.9,2.5,2.3,3.2c0.5,0.3,1,0.8,1.1,1.5c0.6,1,0.2,2,0.2,3c-0.1,1.4,0.3,2.6,1.5,3.6c1.6,1.3,1.7,2.5,0.8,4.5
				c-0.1,0.5,0.2,0.7,0.5,1c1.1,1.1,1.7,2.5,1.1,4c-0.5,1.1,0.6,1.5,0.6,2.3c0.1,0.2,0.3,0.5,0.3,0.7c-0.2,2.3-0.4,4.6-0.7,7
				c-0.1,1.2-0.2,2.3,0.8,3.2c0.5-1.8,0.8-3.6,1-5.4c0-0.2-0.1-0.5,0.1-0.7c0.1-1.2,0.3-2.6,0.4-3.8
				C148.6,63.2,148.8,60.9,148.4,58.8z"/>
			<path class="st10" d="M4.4,31.6c0.4,0.9,0,1.6-0.6,2.2c1.4,0,2.3,0.6,3,1.9c1.4,2.8,3.7,4.6,6.6,5.8c0.9,0.4,1.9,0.6,2.6,1.3
				c0.9,0.9,1.4-0.4,2-0.7c0-1.9,1.3-2.7,2.7-3.5c1.7-0.9,3.3-2.1,5-3.1c0.5-0.3,1-0.5,1.5-0.8c-1-0.8-2.5-1.1-2.7-2.7
				c-0.3,0.6-0.7,1.2,0.2,1.8c-1.4-0.3-2.3,0.2-3.2,1c-0.9,0.8-4.6,0.2-6-0.7c-4.6-2.8-4.7-6.6-3.4-10.2c-1,0.1-2,0.3-2.5,1.1
				c-0.8,1.4-2.2,1.7-3.6,2.1c-0.1,0.1-0.1,0.2-0.2,0.3c0-0.1-0.1-0.3-0.1-0.4C5.9,27.9,4,30.6,4.4,31.6z"/>
			<path class="st10" d="M9.6,25.2c-0.8,1.4-2.5,1.6-3.9,2c0.1,0,0.2,0.1,0.3,0.1C7.5,27,8.8,26.6,9.6,25.2z"/>
			<path class="st10" d="M4.6,28.5c-2.2,2.8-3.7,5.9-4,9.5C0.9,35,2.6,31.3,4.6,28.5C4.6,28.6,4.6,28.6,4.6,28.5z"/>
			<path class="st10" d="M5.7,27.2l9-6.9C11.4,22.1,8.2,24.3,5.7,27.2z"/>
			<path class="st5" d="M6.1,27.3c-0.1,0-0.2-0.1-0.3-0.1c0,0.1,0.1,0.3,0.1,0.4C5.9,27.5,6,27.4,6.1,27.3z"/>
		</g>
		<path class="st10" d="M15.6,21.5c-0.2,0-0.4,0.1-0.6,0.1C15.2,21.6,15.4,21.6,15.6,21.5z"/>
		<path class="st15" d="M39.2,59.7L39,59.6c0,0-0.1,0-0.1,0c-0.1,0-0.2-0.1-0.3-0.1c-1.5-0.3-3-0.6-4.5-0.8
			c-0.2-0.1-0.4-0.1-0.6-0.2c-1.8-0.1-3-1.6-4.5-2.3c-0.2-0.1-0.3-0.2-0.5-0.4c-0.3-0.2-0.5-0.4-0.8-0.6c-0.5-0.4-1-0.7-1.6-1.1
			C26,54,25.8,53.9,25.5,54c-1.6,0.2-3.2,0.4-4.8,0.6c-0.1,0-0.2,0-0.3,0c-0.9,0.1-1.7,0.2-2.6,0.3c-0.2,0.1-0.3,0.1-0.5,0.2
			c-0.7,0-0.8-0.3-0.7-1c0.3-1.7,0.6-3.3,0.6-5c0.5-2.3,0.7-4.7,0.9-7c0-1.9,1.3-2.7,2.7-3.5c1.7-0.9,3.3-2.1,5-3.1
			c0.5-0.3,1-0.5,1.5-0.8c3,1.3,6,2.6,9,3.9c2.6,1.2,5.5,2.1,6.8,5c-0.3,0.7,0.1,1.1,0.6,1.4c1.8,1.3,3,3.1,4.2,4.9
			c-2.7,2-2.2,5.1-2.6,7.8c-0.5,2.8-0.4,2.8-3.2,2.2C41.1,60,40.1,59.8,39.2,59.7z"/>
		<path class="st16" d="M43.1,43.8c-1.3-3-4.2-3.8-6.8-5c-3-1.4-6-2.6-9-3.9c-1-0.8-2.5-1.1-2.7-2.7c-0.7-2.4-1.4-4.8-2.1-7.1
			c-0.3-1-0.1-1.5,0.8-1.9c1.1-0.5,2.1-1,3.1-1.5c2.9-1.3,5.8-2.6,8.7-4c0.2,0.2,0.4,0.3,0.6,0.5c0.2,0.3,0.4,0.6,0.6,0.8
			c0,0,0,0.1,0,0.1l0.1,0c0.2,0.3,0.5,0.5,0.7,0.8c1.9,2.6,3.9,5.1,6,7.5c0.9,3.2,2.1,6.1,4.2,8.7C46.3,38.9,44.6,41.3,43.1,43.8z"
			/>
		<path class="st8" d="M98.7,60.2c-0.3,1-1.1,0.8-1.7,0.6c-0.4-0.1-0.8-0.5-1.3-0.5c-3.2-4.8-5.7-10-7.3-15.6
			c0.3-0.1,0.6-0.2,0.9-0.3c0,0.7,0.6,0.8,1.1,1c2.2,0.8,4.5,1.4,6.7,2.3c3,1.2,6.5,1.5,8.7,4.5c-0.1,1.9-1.2,3.1-2.6,4.2
			C101.7,57.5,100.2,58.9,98.7,60.2z"/>
		<path class="st7" d="M50.6,63.1c0-0.2,0.1-0.4,0.3-0.4c0.2,0,0.3,0.2,0.3,0.4C51,63.1,50.8,63.1,50.6,63.1z"/>
		<path class="st15" d="M98.7,60.2c1.5-1.3,3-2.7,4.5-3.9c1.4-1.1,2.5-2.4,2.6-4.2c2.1-0.3,4.2,0,6.2,0.7c0.7,0.2,1.3,0.5,1.9-0.1
			c1.3,0.3,2.7-0.3,3.9,0.5c4.1,2.7,8.3,5.1,12.1,8.2c0.4,1.4,0.2,2.9,0.2,4.4c0,2.1-0.2,4.2-0.2,6.3c-3.4,2.8-6.9,5.5-10.2,8.3
			c-0.9,0.7-1.2,0.7-1.7-0.4c-0.5-1.4-1.4-2.7-1.8-4.1c-0.8-2.7-2.7-4.1-5.4-4.7c-3.2-1-5.2-3.6-7.4-6
			C101.9,63.5,100.3,61.9,98.7,60.2z"/>
		<path class="st4" d="M124.1,28.9c2.2,1.5,4.7,2.5,6.7,4.2c1.7,1.9,3.2,3.8,2.3,6.6c-0.2,0.1-0.3,0.4-0.3,0.6
			c-0.9,1.1-2,2.1-3.2,2.9c-0.1,0.1-0.3,0.2-0.4,0.3c-0.5,0.2-1,0.4-1.5,0.6c-3.1,0.8-6.1,1.8-9.3,1c0-1.1,0.9-1.8,1-2.9
			c0.9-0.9,1-2.2,1.6-3.2c0.5-0.9,0.3-1.4-0.7-2c-4.7-2.7-9.3-5.4-14-8.2c-2.7-1.6-2.7-1.6-4.8,0.6c-0.4-1.8-0.9-3.5-1.3-5.3
			c0.4-2.9,1.2-3.4,5.1-3.1c4.7,1.1,9,3.3,13.3,5.2C120.4,27.2,122.2,28.1,124.1,28.9z"/>
		<path class="st0" d="M119.4,42.1c-0.1,1-1,1.8-1,2.9c-0.4,0.1-0.6,0.4-0.8,0.7c-1.2,2.3-2.4,4.6-3.6,6.8c-0.6,0.6-1.2,0.4-1.9,0.1
			c-2-0.7-4.1-0.9-6.2-0.7c-2.1-2.9-5.7-3.3-8.7-4.5c-2.2-0.9-4.5-1.5-6.7-2.3c-0.5-0.2-1.1-0.2-1.1-1c1.3-1.5,2.6-3,3.6-4.7
			c1.5-1.9,3-3.8,4.4-5.7c0.3-0.3,0.6-0.7,0.8-1c0.3,0.6,0.9,0.7,1.4,0.9c2.4,1,4.8,1.9,7.2,3C111,38.6,115.3,40.1,119.4,42.1z"/>
		<path class="st12" d="M119.4,42.1c-4.1-2-8.3-3.5-12.5-5.3c-2.4-1-4.8-2-7.2-3c-0.5-0.2-1.1-0.3-1.4-0.9c1.1-1.2,2.2-2.4,3.2-3.6
			c2.1-2.2,2.1-2.2,4.8-0.6c4.6,2.7,9.3,5.5,14,8.2c0.9,0.5,1.2,1,0.7,2C120.3,39.9,120.2,41.2,119.4,42.1z"/>
		<path class="st16" d="M113.9,52.6c1.2-2.3,2.4-4.6,3.6-6.8c0.2-0.3,0.4-0.7,0.8-0.7c3.2,0.9,6.3-0.2,9.3-1
			c0.7,0.1,1.5,0.2,2.2,0.3c0,0,0.1,0,0.1,0l0.1,0c0.7,0.1,1.5,0.1,2.2,0.2c2.1,0.3,4.2,0.6,6.4,0.7c1.2,0.1,1.8,0.5,1.9,1.7
			c0.2,3.4,0.7,6.8,1.1,10.2c0.1,0.1,0.1,0.2,0.2,0.3c0,0,0.1,0.1,0.1,0.1c0,0.1,0.1,0.3,0.1,0.4c0,0.2-0.1,0.5-0.1,0.7
			c0,0.7-0.3,1.1-1.1,1.3c-2.6,0.6-5.1,1.3-7.7,2.1c-1.4,0.5-2.2-0.9-3.4-0.8c-3.8-3.1-8-5.5-12.1-8.2
			C116.6,52.3,115.2,52.9,113.9,52.6z"/>
		<path class="st8" d="M142,58.7c0-0.2,0.1-0.5,0.1-0.7C142.6,58.3,142.6,58.5,142,58.7z"/>
		<path class="st11" d="M27.7,55.3c0.3,0.2,0.5,0.4,0.8,0.6c-0.1,0.2-0.2,0.5-0.5,0.4C27.6,56.1,27.8,55.6,27.7,55.3z"/>
		<path class="st11" d="M26.6,56.2c-0.1,0.1-0.1,0.1-0.2,0.2c0-0.1-0.1-0.1-0.1-0.2c0,0,0.1-0.1,0.1-0.1
			C26.5,56.1,26.5,56.1,26.6,56.2z"/>
		<path class="st11" d="M25.5,54c0.3-0.1,0.5,0,0.7,0.2C25.9,54.2,25.7,54.1,25.5,54z"/>
		<path class="st11" d="M20.4,54.7c0.1-0.1,0.2-0.1,0.3,0C20.6,54.7,20.5,54.7,20.4,54.7z"/>
		<path class="st11" d="M17.3,55.2c0.2-0.1,0.3-0.1,0.5-0.2C17.7,55.1,17.5,55.1,17.3,55.2z"/>
		<polygon class="st2" points="109.2,71.2 109.3,71.3 109.1,71.3 		"/>
		<path class="st8" d="M33.5,58.6c0.2,0.1,0.4,0.1,0.6,0.2C33.9,58.7,33.7,58.6,33.5,58.6z"/>
		<path class="st8" d="M38.6,59.5c0.1,0,0.2,0.1,0.3,0.1C38.8,59.6,38.7,59.6,38.6,59.5z"/>
		<path class="st11" d="M132.7,40.3c0-0.3,0.1-0.5,0.3-0.6C133.5,40.1,133.1,40.2,132.7,40.3z"/>
		<path class="st11" d="M130.2,44.3l-0.1,0c0,0-0.1,0-0.1,0C130,44.3,130.1,44.3,130.2,44.3z"/>
		<path class="st11" d="M129.2,43.4c0.1-0.1,0.3-0.2,0.4-0.3C129.4,43.2,129.3,43.3,129.2,43.4z"/>
		<path class="st9" d="M35.6,18.2c-0.2-0.2-0.4-0.3-0.6-0.5C35.7,17.3,35.6,17.8,35.6,18.2z"/>
		<path class="st9" d="M36.3,19.1L36.3,19.1c-0.1,0-0.1-0.1-0.1-0.1C36.2,19,36.2,19.1,36.3,19.1z"/>
		<path class="st7" d="M142,57.5c-0.1-0.1-0.1-0.2-0.2-0.3C141.9,57.3,141.9,57.4,142,57.5z"/>
	</g>
</g>
</svg>
